<svg width="43" height="41" fill="none" xmlns="http://www.w3.org/2000/svg"><g clip-path="url('#clip0_12_82')"><path fill-rule="evenodd" clip-rule="evenodd" d="M21.5 41C33.374 41 43 31.822 43 20.5S33.374 0 21.5 0 0 9.178 0 20.5 9.626 41 21.5 41Zm1.52-31.563c-1.24.033-2.547.317-3.471 1.154-.764.674-1.148 1.653-1.234 2.632-.027.7-.023 1.403-.02 2.105.004.526.006 1.053-.004 1.578-.339.002-.68.001-1.02 0-.454 0-.908-.001-1.361.005l.001 1.26c.002.84.003 1.684-.001 2.527.453.006.907.005 1.361.004.34 0 .681-.001 1.02.001.008 1.67.007 3.342.005 5.012-.001 2.089-.003 4.177.013 6.265.931-.006 1.86-.005 2.79-.004.697 0 1.395.001 2.093-.001.006-1.88.005-3.758.003-5.636-.001-1.878-.003-3.756.003-5.636.47-.002.94-.002 1.41 0 .626 0 1.252 0 1.878-.005.196-1.259.362-2.529.454-3.803-.62-.003-1.24-.003-1.86-.003-.62 0-1.24 0-1.859-.003v-.66c-.002-.661-.003-1.322.006-1.983.098-.509.648-.897 1.182-.864h2.536c.006-1.319.006-2.632 0-3.95l-.98-.001c-.982-.001-1.963-.002-2.945.006Z" fill="#00CEEA"/></g><defs><clipPath id="clip0_12_82"><path fill="#fff" d="M0 0h43v41H0z"/></clipPath></defs></svg>