<svg width="44" height="43" fill="none" xmlns="http://www.w3.org/2000/svg"><g clip-path="url('#clip0_12_92')"><path fill="#11101F" d="M0 0h44v43H0z"/><path fill-rule="evenodd" clip-rule="evenodd" d="M22 43c12.15 0 22-9.626 22-21.5S34.15 0 22 0 0 9.626 0 21.5 9.85 43 22 43Zm3.24-30.529c1.73.293 3.384.805 4.926 1.5a.06.06 0 0 1 .032.028c2.733 3.944 4.082 8.393 3.578 13.515a.076.076 0 0 1-.032.055 20.155 20.155 0 0 1-6.052 2.997.077.077 0 0 1-.085-.028 15.759 15.759 0 0 1-1.235-1.972.075.075 0 0 1 .04-.106 12.51 12.51 0 0 0 1.89-.882.075.075 0 0 0 .006-.126 9.579 9.579 0 0 1-.376-.29.076.076 0 0 0-.079-.009c-3.914 1.774-8.201 1.774-12.162 0a.076.076 0 0 0-.078.01c-.121.099-.248.196-.375.289a.075.075 0 0 0 .008.126c.603.34 1.23.638 1.888.883a.075.075 0 0 1 .041.105c-.355.691-.77 1.349-1.236 1.973a.079.079 0 0 1-.085.027 20.221 20.221 0 0 1-6.043-2.997.081.081 0 0 1-.031-.056c-.422-4.43.438-8.916 3.575-13.515a.07.07 0 0 1 .033-.028 20.18 20.18 0 0 1 4.925-1.499.078.078 0 0 1 .08.037c.213.371.457.847.622 1.236a18.775 18.775 0 0 1 5.533 0c.165-.38.4-.865.613-1.236a.075.075 0 0 1 .08-.037Zm-9.648 9.951c0 1.32.982 2.393 2.175 2.393 1.211 0 2.175-1.074 2.175-2.393.019-1.31-.954-2.393-2.175-2.393-1.212 0-2.175 1.074-2.175 2.393Zm8.041 0c0 1.32.983 2.393 2.175 2.393 1.221 0 2.175-1.074 2.175-2.393.019-1.31-.954-2.393-2.175-2.393-1.211 0-2.175 1.074-2.175 2.393Z" fill="#00CEEA"/></g><defs><clipPath id="clip0_12_92"><path fill="#fff" d="M0 0h44v43H0z"/></clipPath></defs></svg>