<svg width="45" height="43" fill="none" xmlns="http://www.w3.org/2000/svg"><g clip-path="url('#clip0_12_84')"><path fill-rule="evenodd" clip-rule="evenodd" d="M22.5 43C34.926 43 45 33.374 45 21.5S34.926 0 22.5 0 0 9.626 0 21.5 10.074 43 22.5 43ZM11.25 16.939c0-3.413 2.905-6.189 6.476-6.189h9.548c3.57 0 6.476 2.776 6.476 6.189v9.206c0 3.412-2.905 6.189-6.476 6.189h-9.548c-3.57 0-6.476-2.777-6.476-6.189V16.94Zm16.024 13.347c2.389 0 4.333-1.858 4.333-4.14v-9.207c0-2.284-1.944-4.141-4.333-4.141h-9.548c-2.389 0-4.333 1.857-4.333 4.14v9.207c0 2.283 1.944 4.14 4.333 4.14h9.548Zm-10.63-8.784c0-3.062 2.636-5.552 5.874-5.552 3.238 0 5.873 2.49 5.873 5.552 0 3.062-2.635 5.553-5.873 5.553-3.239 0-5.873-2.491-5.873-5.553Zm2.14 0c0 1.934 1.675 3.508 3.734 3.508s3.734-1.573 3.734-3.508c0-1.934-1.675-3.508-3.734-3.508-2.06 0-3.734 1.574-3.734 3.508Zm9.712-4.459c.763 0 1.382-.59 1.382-1.32 0-.73-.619-1.32-1.382-1.32-.763 0-1.382.59-1.382 1.32 0 .73.619 1.32 1.382 1.32Z" fill="#00CEEA"/></g><defs><clipPath id="clip0_12_84"><path fill="#fff" d="M0 0h45v43H0z"/></clipPath></defs></svg>