<svg width="75" height="108" fill="none" xmlns="http://www.w3.org/2000/svg"><path d="M67.513 107.497H7.923c-4.096 0-7.448-3.883-7.448-8.628V9.138C.475 4.393 3.827.51 7.923.51H38.24c2.012 0 3.874.863 5.29 2.502L72.801 36.92c1.415 1.64 2.16 3.796 2.16 6.126v55.823c0 4.745-3.352 8.628-7.45 8.628ZM7.923 3.961c-2.458 0-4.469 2.33-4.469 5.177v89.73c0 2.848 2.011 5.178 4.47 5.178h59.589c2.458 0 4.47-2.33 4.47-5.177V43.046c0-1.38-.448-2.675-1.342-3.624L41.368 5.514c-.82-1.035-1.937-1.553-3.129-1.553H7.924Z" fill="#00B8DF"/><path d="M36.973 63.84c0 3.192-.894 5.607-2.607 7.333s-4.172 2.502-7.3 2.502h-2.31v10.526H19.32V54.607h8.12c3.128 0 5.437.777 7.076 2.33 1.638 1.553 2.458 3.882 2.458 6.902Zm-12.216 4.745h1.788c1.638 0 2.905-.345 3.724-1.122.82-.776 1.266-1.898 1.266-3.365 0-1.467-.372-2.588-1.043-3.279-.67-.69-1.787-1.035-3.277-1.035h-2.458v8.8ZM54.999 77.471c0 2.33-.67 4.055-2.086 5.263-1.415 1.208-3.5 1.812-6.257 1.812-1.415 0-2.607-.086-3.65-.345-1.042-.259-1.936-.517-2.83-.949v-5.09c.968.517 2.085.949 3.352 1.38 1.266.431 2.309.518 3.277.518 1.937 0 2.905-.69 2.905-1.985 0-.517-.149-.862-.372-1.208-.224-.345-.67-.69-1.341-1.035-.67-.345-1.49-.863-2.533-1.38-1.49-.69-2.607-1.38-3.277-1.985a6.092 6.092 0 0 1-1.564-2.157c-.373-.863-.447-1.812-.447-2.933 0-1.985.67-3.538 2.01-4.66 1.342-1.121 3.278-1.639 5.736-1.639 2.384 0 4.619.604 6.853 1.812l-1.639 4.487c-.968-.518-1.862-.863-2.756-1.208-.893-.345-1.713-.432-2.607-.432-1.564 0-2.383.518-2.383 1.467 0 .518.223 1.036.745 1.467.521.431 1.639 1.035 3.352 1.812 1.49.69 2.607 1.38 3.352 1.984.744.604 1.266 1.294 1.564 2.157.298.863.596 1.726.596 2.847Z" fill="#00B8DF"/></svg>