<svg width="56" height="56" fill="none" xmlns="http://www.w3.org/2000/svg"><path d="M2.333 54.833a1.166 1.166 0 0 1-.828-1.995L52.838 1.505a1.172 1.172 0 0 1 1.657 1.657L3.16 54.495a1.166 1.166 0 0 1-.828.338Z" fill="#252B33"/><path d="M38.5 17.5v36.167h8.166V9.333H2.333V17.5H38.5Z" fill="#00CEEA"/><path d="M46.666 54.833H38.5a1.167 1.167 0 0 1-1.167-1.166v-35h-35A1.167 1.167 0 0 1 1.166 17.5V9.333a1.167 1.167 0 0 1 1.167-1.166h44.333a1.167 1.167 0 0 1 1.167 1.166v44.334a1.167 1.167 0 0 1-1.166 1.166Zm-7-2.333H45.5v-42h-42v5.833h35a1.167 1.167 0 0 1 1.166 1.167v35Z" fill="#252B33"/><path d="M17.5 38.5V2.333H9.333v44.334h44.333V38.5H17.5Z" fill="#00CEEA"/><path d="M53.666 47.833H9.334a1.167 1.167 0 0 1-1.167-1.166V2.333a1.167 1.167 0 0 1 1.167-1.166H17.5a1.167 1.167 0 0 1 1.166 1.166v35h35a1.167 1.167 0 0 1 1.167 1.167v8.167a1.167 1.167 0 0 1-1.166 1.166ZM10.5 45.5h42v-5.833h-35a1.167 1.167 0 0 1-1.167-1.167v-35H10.5v42Z" fill="#252B33"/></svg>