<svg width="45" height="48" fill="none" xmlns="http://www.w3.org/2000/svg"><path fill-rule="evenodd" clip-rule="evenodd" d="M4.627 47.302a.649.649 0 0 1-.61-.471c-.72-2.383-1.524-6.152-1.69-9.504-.222-4.461.776-7.121 2.91-7.897a8.636 8.636 0 0 1 5.68-.194h.028c2.549.886 3.907 2.189 4.932 4.71.859 2.078.997 3.824.388 5.182-.471 1.108-1.413 1.912-2.799 2.41-.083.028-.138.028-.221.028-.084 0-7.787.166-7.953 5.099 0 .332-.25.581-.554.637h-.111ZM11.472 28.044l3.824-4.267 5.93 5.902-4.185 3.74c-1.136-2.77-2.743-4.377-5.57-5.375Zm4.71-5.237.97-1.08 6.124 6.123-1.109.97-5.985-6.013Zm1.829-2.022 14.63-16.321 7.897 7.897-16.292 14.63-6.235-6.206Zm15.517-17.29 2.023-2.273C36.243.474 37.185.03 38.32.002c1.58-.055 3.326.721 4.628 2.024 1.33 1.33 2.078 3.048 2.05 4.655-.055 1.108-.47 2.078-1.247 2.77l-2.272 2.023-7.952-7.98Z" fill="#00CEEA"/></svg>