<svg width="43" height="37" fill="none" xmlns="http://www.w3.org/2000/svg"><path fill-rule="evenodd" clip-rule="evenodd" d="M21.59.257c5.728.002 11.104 1.894 15.146 5.329C40.779 9.02 43.004 13.584 43 18.44c-.005 10.017-9.61 18.168-21.41 18.168h-.009c-3.583-.001-7.104-.764-10.231-2.212L0 36.923l3.038-9.416C1.164 24.753.178 21.628.18 18.425.184 8.407 9.79.257 21.59.257Zm-.006 33.282h.007c9.808 0 17.791-6.774 17.795-15.102.001-4.035-1.848-7.829-5.208-10.683-3.36-2.854-7.827-4.427-12.58-4.429-9.816 0-17.8 6.774-17.803 15.1-.001 2.854.94 5.632 2.72 8.037l.423.572-1.797 5.572 6.736-1.5.65.328c2.732 1.376 5.864 2.104 9.057 2.105Zm6.112-12.787c.49.152 3.12 1.25 3.656 1.477.103.044.2.084.29.12.374.154.627.258.735.411.133.19.133 1.099-.313 2.159-.445 1.06-2.582 2.028-3.61 2.158-.922.117-2.088.166-3.37-.18a34.322 34.322 0 0 1-3.05-.956c-5.017-1.839-8.407-5.966-9.046-6.743-.044-.054-.075-.092-.093-.112l-.002-.002c-.275-.31-2.182-2.465-2.182-4.694 0-2.09 1.21-3.186 1.766-3.69l.106-.097a2.138 2.138 0 0 1 1.427-.568c.356 0 .713.002 1.025.016h.12c.312 0 .7-.003 1.084.779.148.301.365.75.593 1.222.46.95.967 1.997 1.056 2.148.134.228.223.493.045.796l-.076.13c-.134.232-.233.402-.46.627-.088.088-.18.183-.272.278-.185.19-.37.382-.53.517-.268.227-.546.472-.234.927.312.454 1.386 1.94 2.976 3.144 1.71 1.294 3.195 1.841 3.948 2.119.148.054.267.098.354.135.535.227.847.19 1.16-.114.311-.303 1.337-1.325 1.693-1.78.357-.454.714-.378 1.204-.227Z" fill="#00CEEA"/></svg>